<svg xmlns="http://www.w3.org/2000/svg" width="64" height="64" viewBox="0 0 64 64" role="img" aria-label="Surge Labs">
  <title>Surge Labs</title>
  <!-- Generated by scripts/generate-brand-assets.mjs. Do not edit.
       The tab icon is the mark KNOCKED OUT of the accent plate, not the bare
       mark: at 16px a solid fill with a hole in it survives where an outline
       does not, and a knockout is what this would be on a press anyway.
       #C8A24A under #0A0A0B, at 8.22:1. -->
  <rect width="64" height="64" fill="#C8A24A"/>
  <g transform="translate(9.6 15.58) scale(0.23) translate(0 -6.93)">
    <path d="M144.18,144.86C107.25,150.21,1.75,154.5,0,97.52l52.16-.8c8.81,13.9,34.5,14.19,49.83,14.27,9.7.05,38.61,1.02,39.88-9.93.92-7.93-11.53-10.08-17.89-10.34l-32.02-1.34c-22.8-.95-55.17-1.52-74.97-11.62-8.88-4.53-13.61-12.15-14.73-22.01-1.46-12.78,3.15-24.52,13.88-31.88,8.93-6.12,18.53-10.21,29.53-12.41,29.44-5.91,59.61-6.02,89.14-.41,25.59,4.86,52.36,19.37,50.46,48.92l-49.53,1.02c-2.11-7.4-7.6-11.62-14.96-13.38-11.93-2.86-24.15-2.94-36.57-2.58-8.68.25-32.83.42-31.49,12.13.39,3.41,3.5,6,7.43,6.81,21.48,4.42,62.3,3.64,90.09,7.69,20.52,2.99,43.14,10.14,41.83,35.18-.66,12.61-6.7,22.9-18.22,28.88-9.09,4.71-19.06,7.61-29.68,9.15Z" fill="#0A0A0B"/>
  </g>
</svg>
